<svg width="640" height="480" xmlns="http://www.w3.org/2000/svg" xmlns:svg="http://www.w3.org/2000/svg">
 <!-- Created with SVG-edit - https://github.com/SVG-Edit/svgedit-->
 <defs>
  <filter height="200%" id="svg_1_blur" width="200%" x="-50%" y="-50%">
   <feGaussianBlur in="SourceGraphic" stdDeviation="4"/>
  </filter>
  <filter height="200%" id="svg_2_blur" width="200%" x="-50%" y="-50%">
   <feGaussianBlur in="SourceGraphic" stdDeviation="4.5"/>
  </filter>
  <filter height="200%" id="svg_10_blur" width="200%" x="-50%" y="-50%">
   <feGaussianBlur in="SourceGraphic" stdDeviation="6.5"/>
  </filter>
  <filter height="200%" id="svg_11_blur" width="200%" x="-50%" y="-50%">
   <feGaussianBlur in="SourceGraphic" stdDeviation="7"/>
  </filter>
 </defs>
 <g class="layer">
  <title>Layer 1</title>
  <rect fill="#00ffff" filter="url(#svg_2_blur)" height="261" id="svg_2" stroke="#000000" transform="matrix(1 0 0 1 0 0)" width="285" x="194" y="86"/>
  <ellipse cx="332.6" cy="217.2" fill="#00ffff" filter="url(#svg_1_blur)" id="svg_1" rx="120" ry="108" stroke="#000000" transform="matrix(0.906308 0.422618 -0.422618 0.906308 121.359 -119.414)"/>
  <rect fill="#FF0000" height="0" id="svg_4" opacity="0.5" stroke="#000000" width="0" x="137" y="87"/>
  <rect fill="#FF0000" height="0" id="svg_5" opacity="0.5" stroke="#000000" width="0" x="150" y="129"/>
  <rect fill="#FF0000" height="0" id="svg_6" opacity="0.5" stroke="#000000" width="0" x="149" y="91"/>
  <line fill="none" id="svg_7" opacity="0.5" stroke="#000000" stroke-width="5" x1="241" x2="241" y1="123" y2="123"/>
  <line fill="none" id="svg_8" stroke="#000000" x1="190" x2="477" y1="84" y2="346"/>
  <line fill="none" id="svg_9" stroke="#000000" transform="matrix(1 0 0 1 0 0)" x1="192" x2="477" y1="344" y2="86"/>
  <ellipse cx="332" cy="150" fill="#ff0000" filter="url(#svg_10_blur)" id="svg_10" rx="40" ry="25" stroke="#000000" transform="matrix(1 0 0 1 0 0)"/>
  <ellipse cx="333" cy="283" fill="#ff0000" filter="url(#svg_11_blur)" id="svg_11" rx="40" ry="25" stroke="#000000" transform="matrix(1 0 0 1 0 0)"/>
 </g>
</svg>